<svg width="512" height="512" viewBox="0 0 512 512" fill="none" xmlns="http://www.w3.org/2000/svg">
  <!-- 배경 원 -->
  <circle cx="256" cy="256" r="240" fill="#2563eb"/>
  
  <!-- 달력 배경 -->
  <rect x="128" y="148" width="256" height="216" rx="20" fill="white"/>
  
  <!-- 달력 헤더 -->
  <rect x="128" y="148" width="256" height="64" rx="20" fill="#1e40af"/>
  
  <!-- 달력 구멍 -->
  <circle cx="172" cy="128" r="12" fill="#64748b"/>
  <circle cx="340" cy="128" r="12" fill="#64748b"/>
  
  <!-- 달력 날짜 그리드 -->
  <g fill="#374151">
    <!-- 첫 번째 줄 -->
    <rect x="148" y="236" width="20" height="20" rx="3"/>
    <rect x="188" y="236" width="20" height="20" rx="3"/>
    <rect x="228" y="236" width="20" height="20" rx="3"/>
    <rect x="268" y="236" width="20" height="20" rx="3"/>
    <rect x="308" y="236" width="20" height="20" rx="3"/>
    <rect x="348" y="236" width="20" height="20" rx="3"/>
    
    <!-- 두 번째 줄 -->
    <rect x="148" y="276" width="20" height="20" rx="3"/>
    <rect x="188" y="276" width="20" height="20" rx="3"/>
    <rect x="228" y="276" width="20" height="20" rx="3"/>
    <rect x="268" y="276" width="20" height="20" rx="3"/>
    <rect x="308" y="276" width="20" height="20" rx="3"/>
    <rect x="348" y="276" width="20" height="20" rx="3"/>
    
    <!-- 세 번째 줄 -->
    <rect x="148" y="316" width="20" height="20" rx="3"/>
    <rect x="188" y="316" width="20" height="20" rx="3" fill="#2563eb"/>
    <rect x="228" y="316" width="20" height="20" rx="3"/>
    <rect x="268" y="316" width="20" height="20" rx="3"/>
    <rect x="308" y="316" width="20" height="20" rx="3"/>
    <rect x="348" y="316" width="20" height="20" rx="3"/>
  </g>
  
  <!-- 작업 표시 점 -->
  <circle cx="198" cy="326" r="5" fill="white"/>
  
  <!-- 월 표시 텍스트 -->
  <text x="256" y="190" text-anchor="middle" fill="white" font-family="Arial, sans-serif" font-size="24" font-weight="bold">공수</text>
</svg>